<svg width="400" height="550" xmlns="http://www.w3.org/2000/svg">
    <!--
    A flowchart diagram for an 'if/else' statement in a portrait orientation.
    This visualizes the logic: if a condition is true, one action is taken.
    If it's false, a different action is taken. The paths then rejoin.
    -->

    <!-- Background -->
    <rect width="100%" height="100%" fill="white"/>

    <!-- Define styles for shapes, text, and lines for consistency -->
    <style>
        .shape { fill: #e1f5fe; stroke: #0288d1; stroke-width: 2; }
        .text { font-family: 'Helvetica', 'Arial', sans-serif; font-size: 14px; text-anchor: middle; dominant-baseline: middle; fill: #212121; }
        .line { fill: none; stroke: #424242; stroke-width: 2; marker-end: url(#arrowhead); }
        .label { font-family: 'Helvetica', 'Arial', sans-serif; font-size: 12px; font-style: italic; text-anchor: middle; fill: #616161; }
    </style>

    <!-- Define the arrowhead marker to be used on the lines -->
    <defs>
        <marker id="arrowhead" viewBox="0 0 10 10" refX="8" refY="5" markerWidth="6" markerHeight="6" orient="auto-start-reverse">
            <path d="M 0 0 L 10 5 L 0 10 z" fill="#424242" />
        </marker>
    </defs>

    <!-- Flowchart Shapes -->
    <rect x="150" y="20" width="100" height="40" rx="20" class="shape"/>
    <text x="200" y="40" class="text">Start</text>

    <path d="M 200 90 L 280 140 L 200 190 L 120 140 Z" class="shape"/>
    <text x="200" y="140" class="text">user_age &gt;= 18?</text>

    <!-- Wider print boxes for better margin -->
    <rect x="115" y="220" width="170" height="50" class="shape"/>
    <text x="200" y="245" class="text">print("You are an adult.")</text>

    <rect x="115" y="320" width="170" height="50" class="shape"/>
    <text x="200" y="345" class="text">print("You are a minor.")</text>

    <rect x="150" y="480" width="100" height="40" rx="20" class="shape"/>
    <text x="200" y="500" class="text">End</text>

    <!-- Connecting Lines and Labels -->
    <path d="M 200 60 V 90" class="line"/>

    <!-- True Branch (flows straight down) -->
    <path d="M 200 190 V 220" class="line"/>
    <text x="220" y="205" class="label">True</text>

    <!-- False Branch (flows to the side and down) -->
    <path d="M 120 140 H 50 V 345 H 115" class="line"/>
    <text x="85" y="130" class="label">False</text>

    <!-- Rejoining Paths -->
    <!-- Path from "adult" block, routing around "minor" block -->
    <path d="M 200 270 V 295 H 300 V 450 H 200" class="line"/>
    <!-- Path from "minor" block -->
    <path d="M 200 370 V 450" class="line"/>
    <!-- Path from rejoin point to End -->
    <path d="M 200 450 V 480" class="line"/>
</svg>
