<svg width="100%" viewBox="-10 0 440 120" xmlns="http://www.w3.org/2000/svg" font-family="sans-serif" font-size="10">
  <style>
    .box { fill: #D2B48C; stroke: #8B4513; }
    .foam { fill: #FFFACD; }
    .glass { fill: #E0FFFF; stroke: #4682B4; stroke-width: 5; }
    .text-label { text-anchor: middle; fill: #333; }
    .dim-line { stroke: black; stroke-width: 1; marker-start: url(#arrow); marker-end: url(#arrow); }
  </style>
  <defs>
    <marker id="arrow" viewBox="0 0 10 10" refX="5" refY="5" markerWidth="4" markerHeight="4" orient="auto-start-reverse">
      <path d="M 0 0 L 10 5 L 0 10 z" fill="black" />
    </marker>
  </defs>

  <!-- Background -->
  <rect x="-10" y="0" width="440" height="120" fill="white"/>

  <!-- Main Box Outline -->
  <rect x="0" y="20" width="420" height="70" class="box" stroke-width="4"/>

  <!-- Components -->
  <g transform="translate(2, 20)">
    <!-- Foam 1 -->
    <rect x="0" y="2" width="15" height="66" class="foam"/>
    <text x="7.5" y="35" class="text-label" transform="rotate(-90, 7.5, 35)">Foam</text>
    <!-- Glass 1 -->
    <circle cx="48" cy="35" r="30.5" class="glass"/>
    <text x="48" y="38" class="text-label">Glass</text>
    <!-- Foam 2 -->
    <rect x="81" y="2" width="15" height="66" class="foam"/>
    <!-- Glass 2 -->
    <circle cx="129" cy="35" r="30.5" class="glass"/>
    <text x="129" y="38" class="text-label">Glass</text>
    <!-- Foam 3 -->
    <rect x="162" y="2" width="15" height="66" class="foam"/>
    <!-- Glass 3 -->
    <circle cx="210" cy="35" r="30.5" class="glass"/>
    <text x="210" y="38" class="text-label">Glass</text>
    <!-- Foam 4 -->
    <rect x="243" y="2" width="15" height="66" class="foam"/>
    <!-- Glass 4 -->
    <circle cx="291" cy="35" r="30.5" class="glass"/>
    <text x="291" y="38" class="text-label">Glass</text>
    <!-- Foam 5 -->
    <rect x="324" y="2" width="15" height="66" class="foam"/>
    <!-- Glass 5 -->
    <circle cx="372" cy="35" r="30.5" class="glass"/>
    <text x="372" y="38" class="text-label">Glass</text>
    <!-- Foam 6 -->
    <rect x="405" y="2" width="11" height="66" class="foam"/>
  </g>

  <!-- Dimension Line -->
  <line x1="0" y1="100" x2="420" y2="100" class="dim-line"/>
  <text x="210" y="115" class="text-label" font-size="12">Total Outer Width: 40 cm</text>

  <!-- Labels for outer parts -->
  <text x="210" y="15" class="text-label">Cardboard Wall</text>
</svg>
